<svg width="281" height="54" viewBox="0 0 281 54" fill="none" xmlns="http://www.w3.org/2000/svg">
<path d="M85.9706 12.8788H90.236L102.171 40.5843H96.5363L93.9536 34.2449H81.94L79.4356 40.5843H73.918L85.9706 12.8788ZM92.2318 30.0187L87.9664 18.7486L83.6227 30.0187H92.2318Z" fill="white"/>
<path d="M107.598 12.8788H112.529V36.1233H126.482V40.5843H107.598V12.8788Z" fill="white"/>
<path d="M130.238 12.8788H135.169V36.1233H149.122V40.5843H130.238V12.8788Z" fill="white"/>
<path d="M152.761 12.8788H157.691V40.5843H152.761V12.8788Z" fill="white"/>
<path d="M175.079 12.8788H179.344L191.279 40.5843H185.644L183.062 34.2449H171.048L168.544 40.5843H163.026L175.079 12.8788ZM181.34 30.0187L177.074 18.7486L172.731 30.0187H181.34Z" fill="white"/>
<path d="M196.706 12.8788H203.241L216.663 33.4623H216.742V12.8788H221.672V40.5843H215.411L201.715 19.3356H201.637V40.5843H196.706V12.8788Z" fill="white"/>
<path d="M249.217 19.3747C248.2 18.279 247.209 17.5486 246.243 17.1833C245.304 16.8181 244.352 16.6355 243.387 16.6355C241.952 16.6355 240.647 16.8964 239.473 17.4181C238.326 17.9138 237.334 18.6182 236.499 19.5313C235.665 20.4183 235.012 21.4618 234.543 22.6618C234.099 23.8619 233.878 25.1532 233.878 26.5359C233.878 28.0229 234.099 29.3925 234.543 30.6448C235.012 31.897 235.665 32.9797 236.499 33.8927C237.334 34.8058 238.326 35.5232 239.473 36.045C240.647 36.5668 241.952 36.8276 243.387 36.8276C244.508 36.8276 245.591 36.5668 246.635 36.045C247.704 35.4971 248.696 34.6362 249.609 33.4623L253.678 36.3581C252.426 38.0799 250.9 39.3321 249.1 40.1147C247.3 40.8974 245.382 41.2887 243.348 41.2887C241.208 41.2887 239.239 40.9495 237.439 40.2713C235.665 39.5669 234.125 38.5886 232.821 37.3364C231.543 36.058 230.538 34.5319 229.808 32.7579C229.077 30.9839 228.712 29.0143 228.712 26.849C228.712 24.6315 229.077 22.6227 229.808 20.8226C230.538 18.9965 231.543 17.4442 232.821 16.1659C234.125 14.8876 235.665 13.9093 237.439 13.231C239.239 12.5266 241.208 12.1744 243.348 12.1744C245.226 12.1744 246.961 12.5136 248.552 13.1919C250.17 13.8441 251.67 14.9659 253.052 16.5572L249.217 19.3747Z" fill="white"/>
<path d="M259.336 12.8788H280.297V17.3399H264.266V24.1488H279.593V28.6099H264.266V36.1233H281.002V40.5843H259.336V12.8788Z" fill="white"/>
<path fill-rule="evenodd" clip-rule="evenodd" d="M26.5228 53.0457C41.171 53.0457 53.0457 41.171 53.0457 26.5228C53.0457 11.8747 41.171 0 26.5228 0C11.8747 0 0 11.8747 0 26.5228C0 41.171 11.8747 53.0457 26.5228 53.0457ZM9.04297 39.332C9.04297 39.332 16.1258 32.2492 20.3453 25.0157C24.5649 17.7822 26.6746 9.04175 26.6746 9.04175C26.6746 9.04175 28.6337 17.4808 33.0039 25.0157C37.3742 32.5506 44.1556 39.332 44.1556 39.332C44.1556 39.332 36.1686 36.1674 26.6746 36.1674C17.1807 36.1674 9.04297 39.332 9.04297 39.332Z" fill="white"/>
</svg>
