<svg width="187" height="58" viewBox="0 0 187 58" fill="none" xmlns="http://www.w3.org/2000/svg">
<path d="M0 43.9056C0 36.5284 5.78409 30.6663 12.8179 30.6663C17.1566 30.6663 20.9683 32.8399 23.006 36.3968L21.0349 37.5823C19.326 34.75 16.2357 32.9716 12.8179 32.9716C7.23078 32.9716 2.56332 37.78 2.56332 43.9056C2.56332 50.0971 7.16424 54.9053 12.8179 54.9053C16.2357 54.9053 19.326 53.1927 21.0349 50.3604L23.006 51.5461C20.9683 55.103 17.1566 57.2766 12.8179 57.2766C5.78409 57.2107 0 51.3485 0 43.9056Z" fill="white"/>
<path d="M30.3675 33.7623C31.025 31.6545 32.5369 30.6665 34.5093 30.6665C36.4817 30.6665 37.9936 31.6545 38.6497 33.7623L45.8805 56.8157H43.3837L41.2144 49.6363L27.936 49.702L25.6348 56.8157H23.1367L30.3675 33.7623ZM28.5269 47.3309H40.4251L36.4817 34.4868C36.1529 33.4329 35.4955 32.906 34.5093 32.906C33.4579 32.906 32.8656 33.4329 32.5369 34.4868L28.5269 47.3309Z" fill="white"/>
<path d="M49.5625 56.8154V31.0614H56.9916C63.5649 31.0614 68.0341 33.9595 68.0341 39.9534C68.0341 46.1449 63.3666 48.9113 57.0568 48.9113H51.9954V56.8813H49.5625V56.8154ZM51.9954 33.3667V46.5402H56.9916C61.7243 46.5402 65.4707 44.6301 65.4707 39.8875C65.4707 35.3428 61.9865 33.3009 56.9916 33.3009H51.9954V33.3667Z" fill="white"/>
<path d="M73.886 31.0614V56.8154H71.4531V31.0614H73.886Z" fill="white"/>
<path d="M95.1818 33.3667H86.9661V56.8154H84.5333V33.3667H76.3828V31.0614H95.1818V33.3667Z" fill="white"/>
<path d="M100.77 33.7623C101.427 31.6545 102.939 30.6665 104.91 30.6665C106.883 30.6665 108.395 31.6545 109.052 33.7623L116.283 56.8157H113.72L111.55 49.6361L98.2717 49.702L96.0372 56.8816H93.5391L100.77 33.7623ZM98.9292 47.3309H110.826L106.883 34.4868C106.554 33.4329 105.896 32.906 104.91 32.906C103.859 32.906 103.268 33.4329 102.939 34.4868L98.9292 47.3309Z" fill="white"/>
<path d="M122.392 54.51H135.803V56.8154H122.392C120.552 56.8154 119.961 55.8932 119.961 54.3784V31.0614H122.392V54.51Z" fill="white"/>
<path d="M186.497 36.9745C186.002 38.6298 185.339 40.2022 184.597 41.6093C184.349 42.1058 184.102 42.5197 183.853 43.0163C182.532 44.9199 180.219 46.244 177.74 46.244C175.511 46.244 173.446 45.2508 172.125 43.6783C172.041 43.5955 171.959 43.5128 171.877 43.4301C170.472 41.8575 168.491 40.8643 166.26 40.8643C165.681 40.8643 165.186 40.9471 164.691 41.0299V56.5068C163.039 56.8378 161.221 57.0034 159.487 57.0034C143.794 57.0034 131.156 44.2578 131.156 28.6152C131.156 12.9729 143.711 0.144531 159.405 0.144531C162.378 0.144531 165.268 0.641114 167.994 1.46875L159.569 9.91067L164.691 15.042L182.697 33.0845L183.44 33.8295L186.497 36.9745Z" fill="url(#paint0_linear_8758_23338)"/>
<path d="M0.929688 21.406L3.03834 20.3496C4.15858 22.9247 6.72851 24.3113 10.0233 24.3113C13.5817 24.3113 16.2833 22.4626 16.2833 19.2931C16.2833 15.8596 13.1863 15.1993 9.82561 14.473C5.93776 13.6147 1.52275 12.4922 1.52275 7.342C1.52275 3.31418 5.2788 0.210815 9.75971 0.210815C13.4499 0.210815 16.8106 1.9936 18.1944 5.36108L16.1516 6.41755C14.9654 3.90843 12.725 2.52183 9.69382 2.52183C6.66262 2.52183 4.02679 4.5027 4.02679 7.20992C4.02679 10.6434 7.18978 11.3037 10.6164 12.03C14.5042 12.8884 18.8533 14.0109 18.8533 19.2272C18.7215 23.7831 14.8995 26.6884 10.0233 26.6884C5.93776 26.6884 2.3794 24.8395 0.929688 21.406Z" fill="white"/>
<path d="M23.1367 26.424V0.606689H25.5748V12.4258H40.8626V0.606689H43.3008V26.424H40.8626V14.6708H25.5748V26.3579H23.1367V26.424Z" fill="white"/>
<path d="M52.0631 0.606689V26.424H49.625V0.606689H52.0631Z" fill="white"/>
<path d="M56.4805 26.424L60.1707 2.98378C60.5001 1.13497 61.8179 0.144531 63.4654 0.144531C64.9151 0.144531 66.233 0.870854 66.6942 2.52157L72.2296 22.1321C72.3612 22.7263 72.493 22.9245 72.8226 22.9245C73.152 22.9245 73.2838 22.6603 73.4156 22.1321L78.9508 2.5876C79.4122 0.936882 80.7301 0.144531 82.1798 0.144531C83.7613 0.144531 85.0792 1.13497 85.4086 3.04981L88.7694 26.2919H86.3312L83.1682 3.71009C83.0365 2.85172 82.8387 2.32349 82.1139 2.32349C81.5868 2.32349 81.1913 2.7857 80.9936 3.57803L75.2607 23.2547C74.9312 24.4432 73.9428 25.1034 72.8226 25.1034C71.7682 25.1034 70.7139 24.5092 70.3844 23.3207L64.6515 3.512C64.388 2.71967 64.1243 2.32349 63.5972 2.32349C63.0699 2.32349 62.6087 2.7857 62.4769 3.71009L58.9844 26.358H56.4805V26.424Z" fill="white"/>
<path d="M97.9281 3.31418C98.5872 1.20125 100.103 0.210815 102.08 0.210815C103.991 0.210815 105.572 1.20125 106.231 3.31418L113.48 26.4242H110.975L108.801 19.2272L95.49 19.2931L93.1837 26.4242H90.6797L97.9281 3.31418ZM96.0831 16.9161H108.01L104.056 4.0405C103.727 2.98404 103.068 2.4558 102.08 2.4558C101.025 2.4558 100.432 2.98404 100.103 4.0405L96.0831 16.9161Z" fill="white"/>
<defs>
<linearGradient id="paint0_linear_8758_23338" x1="177.792" y1="0.144533" x2="144.345" y2="61.1842" gradientUnits="userSpaceOnUse">
<stop stop-color="white" stop-opacity="0.3"/>
<stop offset="1" stop-color="white"/>
</linearGradient>
</defs>
</svg>
